<?xml version="1.0" encoding="UTF-8" standalone="no"?>
<!-- Created with Inkscape (http://www.inkscape.org/) -->
<svg xmlns:dc="http://purl.org/dc/elements/1.1/" xmlns:cc="http://creativecommons.org/ns#" xmlns:rdf="http://www.w3.org/1999/02/22-rdf-syntax-ns#" xmlns:svg="http://www.w3.org/2000/svg" xmlns="http://www.w3.org/2000/svg" xmlns:xlink="http://www.w3.org/1999/xlink" xmlns:sodipodi="http://sodipodi.sourceforge.net/DTD/sodipodi-0.dtd" xmlns:inkscape="http://www.inkscape.org/namespaces/inkscape" width="477.85052" height="252.72488" id="svg3906" version="1.1" inkscape:version="0.47 r22583" sodipodi:docname="tweet.svg">
  <defs id="defs3908">
    <linearGradient id="linearGradient4631" inkscape:collect="always">
      <stop id="stop4633" offset="0" style="stop-color:#fdca01;stop-opacity:1;"/>
      <stop id="stop4635" offset="1" style="stop-color:#efa512;stop-opacity:1"/>
    </linearGradient>
    <linearGradient id="linearGradient4586" inkscape:collect="always">
      <stop id="stop4588" offset="0" style="stop-color:#7ccafe;stop-opacity:1"/>
      <stop id="stop4590" offset="1" style="stop-color:#a6ccf1;stop-opacity:1"/>
    </linearGradient>
    <linearGradient inkscape:collect="always" id="linearGradient4543">
      <stop style="stop-color:#fdca01;stop-opacity:1;" offset="0" id="stop4545"/>
      <stop style="stop-color:#edc63d;stop-opacity:1" offset="1" id="stop4547"/>
    </linearGradient>
    <linearGradient inkscape:collect="always" id="linearGradient4535">
      <stop style="stop-color:#eeeeee;stop-opacity:1;" offset="0" id="stop4537"/>
      <stop style="stop-color:#eeeeee;stop-opacity:0;" offset="1" id="stop4539"/>
    </linearGradient>
    <linearGradient inkscape:collect="always" id="linearGradient4525">
      <stop style="stop-color:#0197fd;stop-opacity:1;" offset="0" id="stop4527"/>
      <stop style="stop-color:#aacced;stop-opacity:1" offset="1" id="stop4529"/>
    </linearGradient>
    <inkscape:perspective sodipodi:type="inkscape:persp3d" inkscape:vp_x="0 : 526.18109 : 1" inkscape:vp_y="0 : 1000 : 0" inkscape:vp_z="744.09448 : 526.18109 : 1" inkscape:persp3d-origin="372.04724 : 350.78739 : 1" id="perspective3914"/>
    <inkscape:perspective id="perspective3984" inkscape:persp3d-origin="0.5 : 0.33333333 : 1" inkscape:vp_z="1 : 0.5 : 1" inkscape:vp_y="0 : 1000 : 0" inkscape:vp_x="0 : 0.5 : 1" sodipodi:type="inkscape:persp3d"/>
    <linearGradient inkscape:collect="always" xlink:href="#linearGradient4631" id="linearGradient4699" gradientUnits="userSpaceOnUse" gradientTransform="matrix(-0.79304249,0.08899667,0.06907155,0.61549129,461.11066,343.96593)" x1="155.56349" y1="977.6109" x2="146.47212" y2="1127.6135"/>
    <linearGradient inkscape:collect="always" xlink:href="#linearGradient4631" id="linearGradient4701" gradientUnits="userSpaceOnUse" gradientTransform="matrix(0.79304249,0.08899667,-0.06907155,0.61549129,235.85462,346.99639)" x1="155.56349" y1="977.6109" x2="146.47212" y2="1127.6135"/>
    <linearGradient inkscape:collect="always" xlink:href="#linearGradient4525" id="linearGradient4703" gradientUnits="userSpaceOnUse" gradientTransform="matrix(1.7141741,-0.35228865,0.29077793,1.4148738,-140.78773,-499.34406)" x1="126.26907" y1="978.62103" x2="134.3503" y2="1093.7784"/>
    <linearGradient inkscape:collect="always" xlink:href="#linearGradient4525" id="linearGradient4705" gradientUnits="userSpaceOnUse" gradientTransform="matrix(-1.7141741,-0.35228865,-0.29077793,1.4148738,834.23271,-491.26285)" x1="126.26907" y1="978.62103" x2="134.3503" y2="1093.7784"/>
    <linearGradient inkscape:collect="always" xlink:href="#linearGradient4525" id="linearGradient4707" gradientUnits="userSpaceOnUse" gradientTransform="matrix(0.98838952,0,0,0.91700873,11.075256,42.77729)" x1="584.77734" y1="945.78119" x2="584.77734" y2="808.07306"/>
    <linearGradient inkscape:collect="always" xlink:href="#linearGradient4525" id="linearGradient4709" gradientUnits="userSpaceOnUse" gradientTransform="matrix(1.0928838,0,0,1,-42.857163,-18.571428)" x1="568.61359" y1="840.93359" x2="599.82806" y2="734.15857"/>
    <linearGradient inkscape:collect="always" xlink:href="#linearGradient4525" id="linearGradient4711" gradientUnits="userSpaceOnUse" gradientTransform="matrix(1.0969381,0,0,1.1093635,-54.895807,-88.823161)" x1="612.6496" y1="768.56134" x2="625.24542" y2="655.4317"/>
    <linearGradient inkscape:collect="always" xlink:href="#linearGradient4525" id="linearGradient4713" gradientUnits="userSpaceOnUse" gradientTransform="matrix(0.98838952,0,0,0.91700873,11.075256,42.77729)" x1="584.77734" y1="945.78119" x2="584.77734" y2="808.07306"/>
    <linearGradient inkscape:collect="always" xlink:href="#linearGradient4525" id="linearGradient4715" gradientUnits="userSpaceOnUse" gradientTransform="matrix(1.0928838,0,0,1,-42.857163,-18.571428)" x1="568.61359" y1="840.93359" x2="599.82806" y2="734.15857"/>
    <linearGradient inkscape:collect="always" xlink:href="#linearGradient4525" id="linearGradient4717" gradientUnits="userSpaceOnUse" gradientTransform="matrix(1.0969381,0,0,1.1093635,-54.895807,-88.823161)" x1="612.6496" y1="768.56134" x2="625.24542" y2="655.4317"/>
    <linearGradient inkscape:collect="always" xlink:href="#linearGradient4525" id="linearGradient4719" gradientUnits="userSpaceOnUse" x1="350" y1="533.79077" x2="343.85938" y2="968.34338"/>
    <linearGradient inkscape:collect="always" xlink:href="#linearGradient4535" id="linearGradient4721" gradientUnits="userSpaceOnUse" x1="374.28571" y1="492.36221" x2="374.28571" y2="738.07648"/>
    <linearGradient inkscape:collect="always" xlink:href="#linearGradient4586" id="linearGradient4723" gradientUnits="userSpaceOnUse" x1="328.43085" y1="899.48254" x2="315.71429" y2="1048.0765"/>
    <linearGradient inkscape:collect="always" xlink:href="#linearGradient4543" id="linearGradient4725" gradientUnits="userSpaceOnUse" gradientTransform="matrix(1,0,0,0.86733399,26.263966,40.526613)" x1="307.14285" y1="820.93359" x2="304.50934" y2="884.66174"/>
  </defs>
  <sodipodi:namedview id="base" pagecolor="#ffffff" bordercolor="#666666" borderopacity="1.0" inkscape:pageopacity="0.0" inkscape:pageshadow="2" inkscape:zoom="0.98994949" inkscape:cx="126.56808" inkscape:cy="33.265492" inkscape:document-units="px" inkscape:current-layer="layer1" showgrid="false" inkscape:window-width="1524" inkscape:window-height="1088" inkscape:window-x="394" inkscape:window-y="0" inkscape:window-maximized="0"/>
  <g inkscape:label="Layer 1" inkscape:groupmode="layer" id="layer1" transform="translate(-118.84138,-504.8737)">
    <g id="g4666" transform="matrix(0.42730571,0,0,0.42730571,209.63899,307.83235)">
      <path style="fill:url(#linearGradient4699);fill-opacity:1;stroke:none" d="m 408.68099,961.02723 11.18948,49.10987 c 0,0 4.70578,20.2477 19.92656,18.5396 15.22079,-1.7081 49.00629,-4.2404 49.00629,-4.2404 0,0 2.78574,-4.09 12.43504,2.3819 9.64931,6.4719 0.0724,15.1016 0.0724,15.1016 l -71.19323,0.9588 c 0,0 -32.63629,6.2861 -35.84066,6.6457 -3.20438,0.3596 -9.33662,-10.914 -8.8844,-14.1127 0.45224,-3.1985 13.44286,-10.3226 13.44286,-10.3226 0,0 3.06484,-1.603 2.22757,-9.0638 -0.83728,-7.461 -10.70365,-59.23757 -10.70365,-59.23757 l 18.32178,4.2396 -4e-5,0 z" id="path4637" sodipodi:nodetypes="ccscsccsscsccc"/>
      <path sodipodi:nodetypes="ccscsccsscsccc" id="path4627" d="m 288.28429,964.05764 -11.18948,49.10986 c 0,0 -4.70578,20.2477 -19.92656,18.5396 -15.22079,-1.7081 -49.00629,-4.2404 -49.00629,-4.2404 0,0 -2.78574,-4.09 -12.43504,2.3819 -9.64931,6.4719 -0.0724,15.1016 -0.0724,15.1016 l 71.19323,0.9588 c 0,0 32.63629,6.2861 35.84066,6.6457 3.20438,0.3596 9.33662,-10.914 8.8844,-14.1127 -0.45224,-3.1985 -13.44286,-10.3226 -13.44286,-10.3226 0,0 -3.06484,-1.603 -2.22757,-9.0638 0.83728,-7.461 10.70365,-59.23756 10.70365,-59.23756 l -18.32178,4.2396 4e-5,0 z" style="fill:url(#linearGradient4701);fill-opacity:1;stroke:none"/>
      <path id="path4604" d="m 354.54936,914.82787 c 0.57215,5.20844 1.4088,10.5806 2.52402,16.00709 8.76003,42.6247 31.353,73.98424 50.47948,70.05344 19.12647,-3.93074 27.55155,-41.66493 18.79152,-84.28968 -1.11521,-5.42639 -2.46504,-10.69318 -3.99332,-15.70513 l -67.8017,13.93428 z" style="fill:url(#linearGradient4703);fill-opacity:1;stroke:none"/>
      <path style="fill:url(#linearGradient4705);fill-opacity:1;stroke:none" d="m 338.89562,922.90908 c -0.57215,5.20844 -1.4088,10.5806 -2.52402,16.00709 -8.76003,42.62465 -31.353,73.98413 -50.47948,70.05333 -19.12647,-3.9307 -27.55155,-41.66482 -18.79152,-84.28957 1.11521,-5.42639 2.46504,-10.69318 3.99332,-15.70513 l 67.8017,13.93428 z" id="path4613"/>
      <g transform="matrix(-1,0,0,1,695.32797,-12.857143)" id="g4568">
        <path id="path4570" d="m 488.75319,783.78733 c 0,0 86.13903,107.41949 213.03203,0 0,0 43.53263,109.37257 -62.05716,123.04414 0,0 -142.63884,18.55431 -172.27807,-33.20239 l 21.3032,-89.84175 z" style="fill:url(#linearGradient4707);fill-opacity:1;stroke:none"/>
        <path style="fill:url(#linearGradient4709);fill-opacity:1;stroke:none" d="m 501.77046,715.58717 c 0,0 95.24579,117.14117 235.55414,0 0,0 48.13497,119.27102 -68.61796,134.1799 0,0 -157.71886,20.23348 -190.4916,-36.20728 l 23.55542,-97.97262 z" id="path4572"/>
        <path id="path4574" d="m 510.95578,638.28886 c 0,0 103.05095,123.2689 254.8572,0 0,0 52.07951,125.51014 -74.24101,141.19892 0,0 -170.64352,21.2919 -206.10191,-38.1013 l 25.48572,-103.09762 z" style="fill:url(#linearGradient4711);fill-opacity:1;stroke:none"/>
      </g>
      <g id="g4563">
        <path style="fill:url(#linearGradient4713);fill-opacity:1;stroke:none" d="m 488.75319,783.78733 c 0,0 86.13903,107.41949 213.03203,0 0,0 43.53263,109.37257 -62.05716,123.04414 0,0 -142.63884,18.55431 -172.27807,-33.20239 l 21.3032,-89.84175 z" id="path4522"/>
        <path id="path4520" d="m 501.77046,715.58717 c 0,0 95.24579,117.14117 235.55414,0 0,0 48.13497,119.27102 -68.61796,134.1799 0,0 -157.71886,20.23348 -190.4916,-36.20728 l 23.55542,-97.97262 z" style="fill:url(#linearGradient4715);fill-opacity:1;stroke:none"/>
        <path style="fill:url(#linearGradient4717);fill-opacity:1;stroke:none" d="m 510.95578,638.28886 c 0,0 103.05095,123.2689 254.8572,0 0,0 52.07951,125.51014 -74.24101,141.19892 0,0 -170.64352,21.2919 -206.10191,-38.1013 l 25.48572,-103.09762 z" id="path4518"/>
      </g>
      <path id="path3990" d="m 347.4375,461.125 c 10.45332,26.53535 8.25047,49.44348 4.3125,64.40625 -2.61574,-0.12217 -5.23325,-0.1875 -7.875,-0.1875 -3.05236,0 -6.10758,0.0871 -9.125,0.25 -12.11837,-18.56653 -34.61325,-47.31618 -41.90625,-56.5625 10.47755,15.64088 13.91004,41.54013 14.96875,60.21875 -88.51827,19.44744 -155.4375,109.15535 -155.4375,216.875 0,121.93185 85.7422,220.78125 191.5,220.78125 105.7578,0 191.46875,-98.8494 191.46875,-220.78125 0,-87.20966 -43.85779,-162.59815 -107.53125,-198.46875 0.66714,-22.38647 -29.65625,-47.96875 -29.65625,-47.96875 3.29462,15.96626 2.80593,27.16208 0.8125,34.96875 -4.31101,-1.49118 -8.69204,-2.8252 -13.125,-3.96875 C 384.44113,501.67888 347.4375,461.125 347.4375,461.125 z m -58.5625,2.84375 c 0,0 2.58602,3.28095 3.84375,4.875 -1.19542,-1.76566 -2.45982,-3.40179 -3.84375,-4.875 z" style="fill:url(#linearGradient4719);fill-opacity:1;stroke:none"/>
      <path transform="translate(-98.994949,-38.385797)" d="m 431.42859,721.64789 c 0,46.9442 -25.90353,85 -57.85715,85 -31.95362,0 -57.85714,-38.0558 -57.85714,-85 0,-46.94421 25.90352,-85 57.85714,-85 31.95362,0 57.85715,38.05579 57.85715,85 z" sodipodi:ry="85" sodipodi:rx="57.857143" sodipodi:cy="721.64789" sodipodi:cx="373.57144" id="path4502" style="fill:#eeeeee;stroke:none" sodipodi:type="arc"/>
      <path transform="translate(41.005051,-39.814368)" sodipodi:type="arc" style="fill:#eeeeee;stroke:none" id="path4504" sodipodi:cx="373.57144" sodipodi:cy="721.64789" sodipodi:rx="57.857143" sodipodi:ry="85" d="m 431.42859,721.64789 c 0,46.9442 -25.90353,85 -57.85715,85 -31.95362,0 -57.85714,-38.0558 -57.85714,-85 0,-46.94421 25.90352,-85 57.85714,-85 31.95362,0 57.85715,38.05579 57.85715,85 z"/>
      <path transform="translate(-15.714286,-8.5714285)" d="m 501.42857,651.64789 c 0,47.73318 -56.9238,86.42857 -127.14286,86.42857 -70.21907,0 -127.14286,-38.69539 -127.14286,-86.42857 0,-47.73318 56.92379,-86.42858 127.14286,-86.42858 70.21906,0 127.14286,38.6954 127.14286,86.42858 z" sodipodi:ry="86.428574" sodipodi:rx="127.14286" sodipodi:cy="651.64789" sodipodi:cx="374.28571" id="path4533" style="fill:url(#linearGradient4721);fill-opacity:1;stroke:none" sodipodi:type="arc"/>
      <path transform="translate(-98.994949,-38.385797)" d="m 404.28572,749.50507 c 0,18.1465 -12.79186,32.85714 -28.57143,32.85714 -15.77956,0 -28.57142,-14.71064 -28.57142,-32.85714 0,-18.1465 12.79186,-32.85715 28.57142,-32.85715 15.77957,0 28.57143,14.71065 28.57143,32.85715 z" sodipodi:ry="32.857143" sodipodi:rx="28.571428" sodipodi:cy="749.50507" sodipodi:cx="375.71429" id="path4506" style="fill:#333333;stroke:none" sodipodi:type="arc"/>
      <path transform="translate(41.005051,-35.528654)" sodipodi:type="arc" style="fill:#333333;stroke:none" id="path4508" sodipodi:cx="375.71429" sodipodi:cy="749.50507" sodipodi:rx="28.571428" sodipodi:ry="32.857143" d="m 404.28572,749.50507 c 0,18.1465 -12.79186,32.85714 -28.57143,32.85714 -15.77956,0 -28.57142,-14.71064 -28.57142,-32.85714 0,-18.1465 12.79186,-32.85715 28.57142,-32.85715 15.77957,0 28.57143,14.71065 28.57143,32.85715 z"/>
      <path transform="matrix(1,0,0,0.73912565,28.153009,177.79842)" d="m 394.28572,974.50507 c 0,40.63233 -35.17762,73.57143 -78.57143,73.57143 -43.3938,0 -78.57142,-32.9391 -78.57142,-73.57143 0,-40.63238 35.17762,-73.57143 78.57142,-73.57143 43.39381,0 78.57143,32.93905 78.57143,73.57143 z" sodipodi:ry="73.571426" sodipodi:rx="78.571426" sodipodi:cy="974.50507" sodipodi:cx="315.71429" id="path4582" style="fill:url(#linearGradient4723);fill-opacity:1;stroke:none" sodipodi:type="arc"/>
      <path id="path4594" d="m 331.45787,859.29436 a 4.2182515,4.1019079 0 0 0 -1.51578,7.73303 c 0,0 5.83245,3.06064 11.1377,7.71167 2.65263,2.32552 5.11156,5.03172 6.59036,7.69031 1.47881,2.6586 2.00596,5.0819 1.38398,7.5835 -0.19356,0.77848 -0.15747,0.68823 -0.32952,1.38853 l -0.92265,-2.39254 a 4.2182515,4.1019079 0 0 0 -8.15008,1.45261 c 0,0 -0.0382,10.11637 -2.13088,20.22979 -1.04634,5.05671 -2.6391,10.06424 -4.72309,13.54348 -2.084,3.47924 -4.19621,5.16719 -6.89791,5.40458 a 4.2182515,4.1019079 0 1 0 0.76887,8.16027 c 6.09026,-0.53514 10.5609,-4.66474 13.42237,-9.44199 2.86147,-4.77724 4.55999,-10.47716 5.71164,-16.04283 0.28177,-1.36172 0.42062,-2.64256 0.63707,-3.97333 0.0182,0.0254 0.0879,0.10678 0.0879,0.10681 1.5e-4,1.8e-4 0.68101,0.66222 0.68101,0.66222 a 4.2182515,4.1019079 0 0 0 6.832,-3.07612 c 0.002,-0.0222 0.0456,-0.43828 0.21968,-1.32444 0.34832,-1.77233 1.17107,-5.46828 2.98763,-12.77446 1.20276,-4.8375 0.007,-9.53149 -2.15285,-13.41532 -2.16032,-3.88382 -5.25785,-7.16243 -8.36976,-9.89059 -6.2238,-5.45632 -12.82923,-8.84385 -12.82923,-8.84385 a 4.2182515,4.1019079 0 0 0 -2.43843,-0.49133 z" style="font-size:medium;font-style:normal;font-variant:normal;font-weight:normal;font-stretch:normal;text-indent:0;text-align:start;text-decoration:none;line-height:normal;letter-spacing:normal;word-spacing:normal;text-transform:none;direction:ltr;block-progression:tb;writing-mode:lr-tb;text-anchor:start;color:#000000;fill:#b3defd;fill-opacity:1;stroke:none;stroke-width:12;marker:none;visibility:visible;display:inline;overflow:visible;enable-background:accumulate;font-family:Bitstream Vera Sans;-inkscape-font-specification:Bitstream Vera Sans"/>
      <g transform="matrix(0.75916863,-0.65089399,0.65089399,0.75916863,-424.53051,411.42577)" id="g4621">
        <path style="fill:#fb8b00;fill-opacity:1;stroke:none" d="m 289.4525,735.75519 c 0,0 28.44199,48.57353 84.57752,15.05095 0,0 -13.47253,21.8923 2.9939,62.25623 0,0 -98.79853,25.9971 -87.57142,-77.30718 z" id="path4516"/>
        <path id="path4600" d="m 289.41188,734.74505 c 0,0 27.14285,43.98622 80.71428,13.62953 0,0 -12.85714,19.82477 2.85715,56.37671 0,0 -94.28572,23.54192 -83.57143,-70.00624 z" style="fill:url(#linearGradient4725);fill-opacity:1;stroke:none"/>
      </g>
      <path transform="translate(-3.0304576,2.0203051)" d="m 242.43661,781.13623 c 0,19.80516 -14.69847,35.86042 -32.82995,35.86042 -18.13149,0 -32.82996,-16.05526 -32.82996,-35.86042 0,-19.80516 14.69847,-35.86042 32.82996,-35.86042 18.13148,0 32.82995,16.05526 32.82995,35.86042 z" sodipodi:ry="35.860416" sodipodi:rx="32.829956" sodipodi:cy="781.13623" sodipodi:cx="209.60666" id="path4617" style="fill:#b3defd;fill-opacity:1;stroke:none" sodipodi:type="arc"/>
      <path transform="translate(266.68027,8.0812204)" sodipodi:type="arc" style="fill:#b3defd;fill-opacity:1;stroke:none" id="path4619" sodipodi:cx="209.60666" sodipodi:cy="781.13623" sodipodi:rx="32.829956" sodipodi:ry="35.860416" d="m 242.43661,781.13623 c 0,19.80516 -14.69847,35.86042 -32.82995,35.86042 -18.13149,0 -32.82996,-16.05526 -32.82996,-35.86042 0,-19.80516 14.69847,-35.86042 32.82996,-35.86042 18.13148,0 32.82995,16.05526 32.82995,35.86042 z"/>
      <path id="path4641" d="m -131.3653,614.2459 c -14.94034,22.57806 -9.22933,52.96046 11.54859,73.09644 l 4.98147,-7.52807 c -16.80806,-17.28515 -20.89187,-42.18138 -8.74463,-60.53849 10.69799,-16.16693 31.145226,-23.0036 51.422512,-18.74415 l 5.179032,-7.82664 c -24.80264,-6.55542 -50.910974,1.17578 -64.386974,21.54091 z" style="font-size:medium;font-style:normal;font-variant:normal;font-weight:normal;font-stretch:normal;text-indent:0;text-align:start;text-decoration:none;line-height:normal;letter-spacing:normal;word-spacing:normal;text-transform:none;direction:ltr;block-progression:tb;writing-mode:lr-tb;text-anchor:start;color:#000000;fill:#7ccafe;fill-opacity:1;stroke:none;stroke-width:12;marker:none;visibility:visible;display:inline;overflow:visible;enable-background:accumulate;font-family:Bitstream Vera Sans;-inkscape-font-specification:Bitstream Vera Sans"/>
      <path style="font-size:medium;font-style:normal;font-variant:normal;font-weight:normal;font-stretch:normal;text-indent:0;text-align:start;text-decoration:none;line-height:normal;letter-spacing:normal;word-spacing:normal;text-transform:none;direction:ltr;block-progression:tb;writing-mode:lr-tb;text-anchor:start;color:#000000;fill:#7ccafe;fill-opacity:1;stroke:none;stroke-width:12;marker:none;visibility:visible;display:inline;overflow:visible;enable-background:accumulate;font-family:Bitstream Vera Sans;-inkscape-font-specification:Bitstream Vera Sans" d="m -176.04499,584.75466 c -14.5256,19.51869 -8.97313,45.78422 11.228,63.19174 l 4.8432,-6.50801 c -16.34148,-14.94297 -20.31193,-36.46572 -8.50189,-52.33541 10.40102,-13.97628 30.28066,-19.88657 49.99506,-16.20427 l 5.03527,-6.76612 c -24.11413,-5.66715 -49.49773,1.01645 -62.59964,18.62207 z" id="path4656"/>
      <path id="path4658" d="m -204.91167,561.75226 c -13.48877,20.69537 -8.33263,48.54431 10.42655,67.00124 l 4.49749,-6.90034 c -15.17503,-15.84381 -18.86207,-38.66405 -7.89503,-55.49044 9.6586,-14.81884 28.11924,-21.08543 46.42643,-17.18115 l 4.67585,-7.17401 c -22.39287,-6.00879 -45.96459,1.07773 -58.13129,19.7447 z" style="font-size:medium;font-style:normal;font-variant:normal;font-weight:normal;font-stretch:normal;text-indent:0;text-align:start;text-decoration:none;line-height:normal;letter-spacing:normal;word-spacing:normal;text-transform:none;direction:ltr;block-progression:tb;writing-mode:lr-tb;text-anchor:start;color:#000000;fill:#7ccafe;fill-opacity:1;stroke:none;stroke-width:12;marker:none;visibility:visible;display:inline;overflow:visible;enable-background:accumulate;font-family:Bitstream Vera Sans;-inkscape-font-specification:Bitstream Vera Sans"/>
      <path style="font-size:medium;font-style:normal;font-variant:normal;font-weight:normal;font-stretch:normal;text-indent:0;text-align:start;text-decoration:none;line-height:normal;letter-spacing:normal;word-spacing:normal;text-transform:none;direction:ltr;block-progression:tb;writing-mode:lr-tb;text-anchor:start;color:#000000;fill:#7ccafe;fill-opacity:1;stroke:none;stroke-width:12;marker:none;visibility:visible;display:inline;overflow:visible;enable-background:accumulate;font-family:Bitstream Vera Sans;-inkscape-font-specification:Bitstream Vera Sans" d="m 819.62447,625.35758 c 14.94034,22.57806 9.22933,52.96046 -11.54859,73.09644 l -4.98147,-7.52807 c 16.80806,-17.28515 20.89187,-42.18138 8.74463,-60.53849 -10.69799,-16.16693 -31.14523,-23.0036 -51.42252,-18.74415 l -5.17903,-7.82664 c 24.80264,-6.55542 50.91098,1.17578 64.38698,21.54091 z" id="path4660"/>
      <path id="path4662" d="m 861.85611,598.11775 c 13.48877,20.69537 8.33263,48.54431 -10.42655,67.00124 l -4.49749,-6.90034 c 15.17503,-15.84381 18.86207,-38.66405 7.89503,-55.49044 -9.6586,-14.81884 -28.11924,-21.08543 -46.42643,-17.18115 l -4.67585,-7.17401 c 22.39287,-6.00879 45.96459,1.07773 58.13129,19.7447 z" style="font-size:medium;font-style:normal;font-variant:normal;font-weight:normal;font-stretch:normal;text-indent:0;text-align:start;text-decoration:none;line-height:normal;letter-spacing:normal;word-spacing:normal;text-transform:none;direction:ltr;block-progression:tb;writing-mode:lr-tb;text-anchor:start;color:#000000;fill:#7ccafe;fill-opacity:1;stroke:none;stroke-width:12;marker:none;visibility:visible;display:inline;overflow:visible;enable-background:accumulate;font-family:Bitstream Vera Sans;-inkscape-font-specification:Bitstream Vera Sans"/>
      <path style="font-size:medium;font-style:normal;font-variant:normal;font-weight:normal;font-stretch:normal;text-indent:0;text-align:start;text-decoration:none;line-height:normal;letter-spacing:normal;word-spacing:normal;text-transform:none;direction:ltr;block-progression:tb;writing-mode:lr-tb;text-anchor:start;color:#000000;fill:#7ccafe;fill-opacity:1;stroke:none;stroke-width:12;marker:none;visibility:visible;display:inline;overflow:visible;enable-background:accumulate;font-family:Bitstream Vera Sans;-inkscape-font-specification:Bitstream Vera Sans" d="m 898.2216,581.95531 c 13.48877,20.69537 8.33263,48.54431 -10.42655,67.00124 l -4.49749,-6.90034 c 15.17503,-15.84381 18.86207,-38.66405 7.89503,-55.49044 -9.6586,-14.81884 -28.11924,-21.08543 -46.42643,-17.18115 l -4.67585,-7.17401 c 22.39287,-6.00879 45.96459,1.07773 58.13129,19.7447 z" id="path4664"/>
    </g>
  </g>
  <metadata>
    <rdf:RDF>
      <cc:Work>
        <dc:format>image/svg+xml</dc:format>
        <dc:type rdf:resource="http://purl.org/dc/dcmitype/StillImage"/>
        <cc:license rdf:resource="http://creativecommons.org/licenses/publicdomain/"/>
        <dc:publisher>
          <cc:Agent rdf:about="http://openclipart.org/">
            <dc:title>Open Clip Art Library</dc:title>
          </cc:Agent>
        </dc:publisher>
        <dc:title>Tweet bird</dc:title>
        <dc:date>2010-08-03T13:16:42</dc:date>
        <dc:description>Tweeting Bird</dc:description>
        <dc:source>http://openclipart.org/detail/76675/tweet-bird-by-shokunin</dc:source>
        <dc:creator>
          <cc:Agent>
            <dc:title>shokunin</dc:title>
          </cc:Agent>
        </dc:creator>
        <dc:subject>
          <rdf:Bag>
            <rdf:li>bird</rdf:li>
            <rdf:li>blue</rdf:li>
            <rdf:li>clip art</rdf:li>
            <rdf:li>clipart</rdf:li>
            <rdf:li>corporate</rdf:li>
            <rdf:li>icon</rdf:li>
            <rdf:li>peep</rdf:li>
            <rdf:li>tweet</rdf:li>
            <rdf:li>tweeting</rdf:li>
            <rdf:li>twitter</rdf:li>
          </rdf:Bag>
        </dc:subject>
      </cc:Work>
      <cc:License rdf:about="http://creativecommons.org/licenses/publicdomain/">
        <cc:permits rdf:resource="http://creativecommons.org/ns#Reproduction"/>
        <cc:permits rdf:resource="http://creativecommons.org/ns#Distribution"/>
        <cc:permits rdf:resource="http://creativecommons.org/ns#DerivativeWorks"/>
      </cc:License>
    </rdf:RDF>
  </metadata>
</svg>
